<svg width="25" height="25" viewBox="0 0 25 25" fill="none" xmlns="http://www.w3.org/2000/svg">
<path fill-rule="evenodd" clip-rule="evenodd" d="M23 12.5001C23 18.2991 18.299 23.0001 12.5 23.0001C6.70101 23.0001 2 18.2991 2 12.5001C2 6.70113 6.70101 2.00012 12.5 2.00012C18.299 2.00012 23 6.70113 23 12.5001ZM25 12.5001C25 19.4037 19.4036 25.0001 12.5 25.0001C5.59644 25.0001 0 19.4037 0 12.5001C0 5.59656 5.59644 0.00012207 12.5 0.00012207C19.4036 0.00012207 25 5.59656 25 12.5001ZM17.5143 7.01471C17.8237 7.01471 18.1204 7.13758 18.3392 7.35629C18.5579 7.57507 18.6808 7.87177 18.6808 8.18112C18.6808 8.49048 18.5579 8.78718 18.3392 9.00596L14.4973 12.8478L18.3392 16.6896C18.5517 16.9097 18.6693 17.2044 18.6666 17.5103C18.664 17.8162 18.5413 18.1088 18.325 18.3251C18.1086 18.5414 17.816 18.6641 17.5101 18.6667C17.2042 18.6694 16.9095 18.5518 16.6895 18.3393L12.8477 14.4975L9.00584 18.3393C8.89821 18.4507 8.76948 18.5396 8.62714 18.6007C8.4848 18.6619 8.33171 18.6941 8.1768 18.6954C8.0219 18.6968 7.86827 18.6672 7.72489 18.6086C7.58151 18.5499 7.45125 18.4633 7.34171 18.3538C7.23217 18.2442 7.14554 18.114 7.08688 17.9706C7.02822 17.8272 6.9987 17.6736 7.00004 17.5187C7.00139 17.3637 7.03357 17.2107 7.09472 17.0683C7.15586 16.926 7.24474 16.7972 7.35617 16.6896L11.198 12.8478L7.35617 9.00596C7.24474 8.89834 7.15586 8.7696 7.09472 8.62726C7.03357 8.48493 7.00139 8.33184 7.00004 8.17693C6.9987 8.02202 7.02822 7.86839 7.08688 7.72501C7.14554 7.58163 7.23217 7.45137 7.34171 7.34183C7.45125 7.23229 7.58151 7.14566 7.72489 7.087C7.86827 7.02834 8.0219 6.99882 8.1768 7.00017C8.33171 7.00151 8.4848 7.0337 8.62714 7.09484C8.76948 7.15598 8.89821 7.24486 9.00584 7.35629L12.8477 11.1981L16.6895 7.35629C16.9083 7.13758 17.205 7.01471 17.5143 7.01471Z" fill="#232323"/>
</svg>
