<svg width="35" height="35" viewBox="0 0 35 35" fill="none" xmlns="http://www.w3.org/2000/svg">
<path fill-rule="evenodd" clip-rule="evenodd" d="M17.1529 34.8896L17.1683 34.8897H17.163L17.1529 34.8896ZM17.2744 34.8897H17.269L17.2844 34.8896L17.2744 34.8897ZM17.1003 34.8893L17.1169 34.8894H17.1073L17.1003 34.8893ZM17.33 34.8894H17.3204L17.337 34.8893L17.33 34.8894ZM17.0496 34.8889L17.0607 34.889L17.0518 34.8889H17.0496ZM17.3855 34.8889L17.3767 34.889L17.3878 34.8889H17.3855ZM17.4411 34.8883L17.4372 34.8884L17.4522 34.8882L17.4411 34.8883ZM16.9851 34.8882L17.0001 34.8884L16.9962 34.8883L16.9851 34.8882ZM17.4966 34.8875L17.4875 34.8876L17.506 34.8874L17.4966 34.8875ZM16.9313 34.8874L16.9498 34.8876L16.9407 34.8875L16.9313 34.8874ZM17.552 34.8866L17.5398 34.8868L17.5569 34.8864L17.552 34.8866ZM16.8805 34.8864L16.8976 34.8868L16.8853 34.8866L16.8805 34.8864ZM16.8175 34.8852L16.8326 34.8855L16.8299 34.8854L16.8175 34.8852ZM17.6074 34.8854L17.6047 34.8855L17.6199 34.8852L17.6074 34.8854ZM16.7622 34.8837L16.783 34.8843L16.7745 34.8841L16.7622 34.8837ZM17.6628 34.8841L17.6544 34.8843L17.6752 34.8837L17.6628 34.8841ZM17.7181 34.8826L17.7046 34.883L17.7259 34.8824L17.7181 34.8826ZM16.7115 34.8824L16.7327 34.883L16.7192 34.8826L16.7115 34.8824ZM16.663 34.8809L16.6782 34.8814L16.6639 34.8809L16.6509 34.8805L16.663 34.8809ZM17.7734 34.8809L17.7592 34.8814L17.7743 34.8809L17.7865 34.8805L17.7734 34.8809ZM17.8286 34.8791L17.8211 34.8794L17.8443 34.8786L17.8286 34.8791ZM16.593 34.8786L16.6162 34.8794L16.6087 34.8791L16.593 34.8786ZM16.5426 34.8767L16.567 34.8776L16.5535 34.8771L16.5426 34.8767ZM17.8839 34.8771L17.8703 34.8776L17.8947 34.8767L17.8839 34.8771ZM16.4932 34.8747L16.517 34.8757L16.4984 34.8749L16.4932 34.8747ZM17.939 34.8749L17.9203 34.8757L17.9441 34.8747L17.939 34.8749ZM16.4239 34.8716L16.4495 34.8728L16.4432 34.8726L16.4239 34.8716ZM17.9941 34.8726L17.9879 34.8728L18.0134 34.8716L17.9941 34.8726ZM16.3742 34.8693L16.4007 34.8706L16.3882 34.87L16.3742 34.8693ZM18.0491 34.87L18.0366 34.8706L18.0631 34.8693L18.0491 34.87ZM16.3252 34.8669L16.3519 34.8682L16.3332 34.8673L16.3252 34.8669ZM18.1041 34.8673L18.0854 34.8682L18.1121 34.8669L18.1041 34.8673ZM18.1592 34.8644L18.1348 34.8657L18.1564 34.8646L18.1818 34.8632L18.1592 34.8644ZM16.2809 34.8646L16.3025 34.8657L16.2782 34.8644L16.2555 34.8632L16.2809 34.8646ZM18.2141 34.8613L18.2033 34.8619L18.2306 34.8604L18.2141 34.8613ZM16.2067 34.8604L16.234 34.8619L16.2233 34.8613L16.2067 34.8604ZM16.1582 34.8575L16.1854 34.8591L16.1684 34.8582L16.1582 34.8575ZM18.2689 34.8582L18.2519 34.8591L18.2792 34.8575L18.2689 34.8582ZM16.1118 34.8546L16.1364 34.8562L16.1135 34.8547L16.0905 34.8533L16.1118 34.8546ZM18.3238 34.8547L18.301 34.8562L18.3255 34.8546L18.3468 34.8533L18.3238 34.8547ZM18.3786 34.8512L18.3704 34.8517L18.3964 34.85L18.3786 34.8512ZM16.0409 34.85L16.067 34.8517L16.0588 34.8512L16.0409 34.85ZM15.9924 34.8466L16.018 34.8484L16.004 34.8475L15.9924 34.8466ZM18.4333 34.8475L18.4193 34.8484L18.4449 34.8466L18.4333 34.8475ZM15.9441 34.8432L15.9676 34.8449L15.9493 34.8436L15.9441 34.8432ZM18.488 34.8436L18.4698 34.8449L18.4932 34.8432L18.488 34.8436ZM15.879 34.8383L15.8996 34.8398L15.8946 34.8395L15.879 34.8383ZM18.5427 34.8395L18.5377 34.8398L18.5583 34.8383L18.5427 34.8395ZM18.5972 34.8352L18.5874 34.836L18.6083 34.8343L18.5972 34.8352ZM15.829 34.8343L15.8499 34.836L15.8401 34.8352L15.829 34.8343ZM15.7802 34.8303L15.798 34.8318L15.7855 34.8308L15.7802 34.8303ZM18.6518 34.8308L18.6393 34.8318L18.6571 34.8303L18.6518 34.8308ZM15.7266 34.8258L15.7319 34.8263L15.731 34.8262L15.7266 34.8258ZM18.7063 34.8262L18.7055 34.8263L18.7108 34.8258L18.7063 34.8262ZM18.7608 34.8214L18.756 34.8218L18.7681 34.8208L18.7608 34.8214ZM15.6692 34.8208L15.6814 34.8218L15.6765 34.8214L15.6692 34.8208ZM15.6187 34.8162L15.6278 34.8171L15.6222 34.8165L15.6187 34.8162ZM18.8152 34.8165L18.8095 34.8171L18.8186 34.8162L18.8152 34.8165ZM14.5282 34.6803C6.30102 33.3865 0 26.255 0 17.6628C0 8.155 7.71544 0.435852 17.2187 0.435852C26.7219 0.435852 34.4373 8.155 34.4373 17.6628C34.4373 26.255 28.1363 33.3865 19.9091 34.6803V22.6425H23.9212L24.6846 17.6628H19.9091V14.4313C19.9091 13.069 20.5762 11.741 22.7151 11.741H24.8864V7.50159C24.8864 7.50159 22.9159 7.16513 21.032 7.16513C17.0989 7.16513 14.5282 9.54998 14.5282 13.8675V17.6628H10.1563V22.6425H14.5282V34.6803Z" fill="black"/>
</svg>
