<svg width="44" height="22" viewBox="0 0 44 22" fill="none" xmlns="http://www.w3.org/2000/svg">
<path fill-rule="evenodd" clip-rule="evenodd" d="M39.0304 3.70602C39.3562 3.70602 39.6684 3.86891 39.8585 4.14041L42.9128 8.51146C43.035 8.67436 43.1028 8.87798 43.1028 9.09517V17.4708C43.1028 18.0273 42.6413 18.4889 42.0847 18.4889H39.9806C39.4512 20.3486 37.7408 21.7061 35.7318 21.7061C33.7227 21.7061 32.0123 20.335 31.4829 18.4889H20.2023C19.6729 20.3486 17.9625 21.7061 15.9534 21.7061C13.9444 21.7061 12.2339 20.335 11.7045 18.4889H8.8267C8.27013 18.4889 7.80859 18.0273 7.80859 17.4708V1.01822C7.80859 0.461662 8.27013 0.00012207 8.8267 0.00012207H31.7001C32.2566 0.00012207 32.7182 0.461662 32.7182 1.01822V3.70602H39.0304ZM30.682 2.0499H9.8448V16.4662H11.6095C11.9896 14.4165 13.795 12.8689 15.9534 12.8689C18.1118 12.8689 19.9037 14.4165 20.2973 16.4662H30.682V2.0499ZM13.5643 17.2807C13.5643 18.5975 14.6367 19.6699 15.9534 19.6699C17.2702 19.6699 18.3426 18.5975 18.3426 17.2807C18.3426 15.964 17.2702 14.8916 15.9534 14.8916C14.6367 14.8916 13.5643 15.964 13.5643 17.2807ZM33.3562 17.2807C33.3562 18.5975 34.4286 19.6699 35.7453 19.6699C37.0621 19.6699 38.1345 18.5975 38.1345 17.2807C38.1345 15.964 37.0621 14.8916 35.7453 14.8916C34.4286 14.8916 33.3562 15.964 33.3562 17.2807ZM35.7453 12.8689C37.9037 12.8689 39.6956 14.4165 40.0892 16.4662H41.0938V11.43H35.4874C34.9309 11.43 34.4693 10.9685 34.4693 10.4119V5.7558H32.7182V14.0771C33.5055 13.3305 34.5779 12.8689 35.7453 12.8689ZM38.5146 5.7558H36.5191L36.5 9.50012H41.0938L41.0802 9.39382L38.5146 5.7558Z" fill="black"/>
<path d="M1.0181 2.05H8.28057C8.83713 2.05 9.29867 1.58846 9.29867 1.0319C9.29867 0.475334 8.83713 0.0137939 8.28057 0.0137939H1.0181C0.46154 0.0137939 0 0.475334 0 1.0319C0 1.58846 0.46154 2.05 1.0181 2.05Z" fill="black"/>
<path d="M8.28276 3.71887H2.68998C2.13341 3.71887 1.67188 4.18041 1.67188 4.73697C1.67188 5.29354 2.13341 5.75508 2.68998 5.75508H8.28276C8.83932 5.75508 9.30086 5.29354 9.30086 4.73697C9.30086 4.18041 8.85289 3.71887 8.28276 3.71887Z" fill="black"/>
<path d="M8.2819 7.4259H4.75248C4.19591 7.4259 3.73438 7.88744 3.73438 8.44401C3.73438 9.00057 4.19591 9.46211 4.75248 9.46211H8.2819C8.83846 9.46211 9.3 9.00057 9.3 8.44401C9.3 7.88744 8.85204 7.4259 8.2819 7.4259Z" fill="black"/>
</svg>
